<svg width="20" height="20" viewBox="0 0 20 20" fill="none" xmlns="http://www.w3.org/2000/svg">
<g clip-path="url(#clip0_1136_3537)">
<path d="M7.36665 9.85146C8.33806 9.85146 9.28766 9.5634 10.0954 9.02371C10.9031 8.48402 11.5326 7.71694 11.9043 6.81947C12.2761 5.92199 12.3734 4.93444 12.1838 3.98169C11.9943 3.02894 11.5265 2.15378 10.8396 1.46689C10.1528 0.779992 9.2776 0.312211 8.32485 0.122697C7.37209 -0.066817 6.38454 0.0304484 5.48707 0.402193C4.5896 0.773938 3.82252 1.40347 3.28283 2.21117C2.74314 3.01887 2.45508 3.96847 2.45508 4.93989C2.45638 6.24212 2.97426 7.49064 3.89508 8.41146C4.8159 9.33227 6.06442 9.85016 7.36665 9.85146ZM7.36665 1.66551C8.01426 1.66551 8.64732 1.85755 9.18579 2.21734C9.72426 2.57714 10.1439 3.08853 10.3918 3.68684C10.6396 4.28515 10.7045 4.94352 10.5781 5.57869C10.4518 6.21386 10.1399 6.7973 9.68198 7.25523C9.22405 7.71316 8.64061 8.02501 8.00545 8.15135C7.37028 8.2777 6.71191 8.21285 6.1136 7.96502C5.51528 7.71719 5.00389 7.29751 4.6441 6.75904C4.28431 6.22057 4.09227 5.5875 4.09227 4.93989C4.09227 4.07147 4.43725 3.23862 5.05131 2.62455C5.66538 2.01049 6.49823 1.66551 7.36665 1.66551V1.66551Z" fill="#1A1A1A"/>
<path d="M17.1906 8.21359V5.75781H15.5534V8.21359H13.0977V9.85078H15.5534V12.3066H17.1906V9.85078H19.6464V8.21359H17.1906Z" fill="#1A1A1A"/>
<path d="M10.6769 11.4893H4.05777C2.98198 11.4906 1.95063 11.9185 1.18993 12.6792C0.429231 13.4399 0.00129979 14.4712 0 15.547L0 19.6752H1.63719V15.547C1.63784 14.9053 1.89307 14.2899 2.34688 13.8361C2.80069 13.3823 3.41599 13.1271 4.05777 13.1264H10.6769C11.3187 13.1271 11.934 13.3823 12.3878 13.8361C12.8416 14.2899 13.0969 14.9053 13.0975 15.547V19.6752H14.7347V15.547C14.7334 14.4712 14.3055 13.4399 13.5448 12.6792C12.7841 11.9185 11.7527 11.4906 10.6769 11.4893V11.4893Z" fill="#1A1A1A"/>
</g>
<defs>
<clipPath id="clip0_1136_3537">
<rect width="19.6463" height="19.6463" fill="white" transform="translate(0 0.0283203)"/>
</clipPath>
</defs>
</svg>
