<svg width="19" height="19" viewBox="0 0 19 19" fill="none" xmlns="http://www.w3.org/2000/svg">
<g id="01 align center">
<path id="Vector" d="M16.4344 2.44035H14.1999V0.950684H12.7103V2.44035H6.75163V0.950684H5.26196V2.44035H3.02747C2.43484 2.44035 1.86649 2.67577 1.44744 3.09482C1.02839 3.51387 0.792969 4.08222 0.792969 4.67484L0.792969 18.8267H18.6689V4.67484C18.6689 4.08222 18.4335 3.51387 18.0145 3.09482C17.5954 2.67577 17.0271 2.44035 16.4344 2.44035ZM2.28263 4.67484C2.28263 4.4773 2.36111 4.28785 2.50079 4.14817C2.64047 4.00849 2.82992 3.93001 3.02747 3.93001H16.4344C16.632 3.93001 16.8214 4.00849 16.9611 4.14817C17.1008 4.28785 17.1793 4.4773 17.1793 4.67484V6.90934H2.28263V4.67484ZM2.28263 17.337V8.39901H17.1793V17.337H2.28263Z" fill="#8E92BC"/>
<path id="Vector_2" d="M13.4545 10.6338H11.9648V12.1235H13.4545V10.6338Z" fill="#8E92BC"/>
<path id="Vector_3" d="M10.474 10.6338H8.98438V12.1235H10.474V10.6338Z" fill="#8E92BC"/>
<path id="Vector_4" d="M7.49552 10.6338H6.00586V12.1235H7.49552V10.6338Z" fill="#8E92BC"/>
<path id="Vector_5" d="M13.4545 13.6128H11.9648V15.1025H13.4545V13.6128Z" fill="#8E92BC"/>
<path id="Vector_6" d="M10.474 13.6128H8.98438V15.1025H10.474V13.6128Z" fill="#8E92BC"/>
<path id="Vector_7" d="M7.49552 13.6128H6.00586V15.1025H7.49552V13.6128Z" fill="#8E92BC"/>
</g>
</svg>
