<svg width="21" height="21" viewBox="0 0 21 21" fill="none" xmlns="http://www.w3.org/2000/svg">
<g id="vuesax/linear/calendar-search">
<g id="calendar-search">
<path id="Vector" d="M7 1.75V4.375" stroke="#292D32" stroke-width="1.5" stroke-miterlimit="10" stroke-linecap="round" stroke-linejoin="round"/>
<path id="Vector_2" d="M14 1.75V4.375" stroke="#292D32" stroke-width="1.5" stroke-miterlimit="10" stroke-linecap="round" stroke-linejoin="round"/>
<g id="Group">
<path id="Vector_3" d="M15.925 18.725C17.4714 18.725 18.725 17.4714 18.725 15.925C18.725 14.3786 17.4714 13.125 15.925 13.125C14.3786 13.125 13.125 14.3786 13.125 15.925C13.125 17.4714 14.3786 18.725 15.925 18.725Z" stroke="#292D32" stroke-width="1.5" stroke-linecap="round" stroke-linejoin="round"/>
<path id="Vector_4" d="M19.25 19.25L18.375 18.375" stroke="#292D32" stroke-width="1.5" stroke-linecap="round" stroke-linejoin="round"/>
</g>
<path id="Vector_5" d="M3.0625 7.95361H17.9375" stroke="#292D32" stroke-width="1.5" stroke-miterlimit="10" stroke-linecap="round" stroke-linejoin="round"/>
<path id="Vector_6" d="M11.6987 19.25H7C3.9375 19.25 2.625 17.5 2.625 14.875V7.4375C2.625 4.8125 3.9375 3.0625 7 3.0625H14C17.0625 3.0625 18.375 4.8125 18.375 7.4375V11.375" stroke="#292D32" stroke-width="1.5" stroke-miterlimit="10" stroke-linecap="round" stroke-linejoin="round"/>
<path id="Vector_7" d="M10.4952 11.9873H10.5031" stroke="#292D32" stroke-width="2" stroke-linecap="round" stroke-linejoin="round"/>
<path id="Vector_8" d="M7.25691 11.9873H7.26477" stroke="#292D32" stroke-width="2" stroke-linecap="round" stroke-linejoin="round"/>
<path id="Vector_9" d="M7.25691 14.6123H7.26477" stroke="#292D32" stroke-width="2" stroke-linecap="round" stroke-linejoin="round"/>
</g>
</g>
</svg>
