<svg width="19" height="19" viewBox="0 0 19 19" fill="none" xmlns="http://www.w3.org/2000/svg">
<path fill-rule="evenodd" clip-rule="evenodd" d="M10.5142 5.02357L10.3814 8.08482L11.5792 6.98666C12.7908 8.3082 12.7015 10.3669 11.38 11.5785C10.9767 11.9482 10.5019 12.1998 10.0058 12.324L9.95734 13.4414C10.734 13.3025 11.4853 12.9518 12.1121 12.377C13.8768 10.7591 13.9957 8.01927 12.3777 6.25455L13.5755 5.15638L10.5142 5.02357ZM6.78801 11.3794C5.57637 10.0579 5.66568 7.99917 6.98722 6.78753C7.39047 6.41782 7.86527 6.16622 8.36138 6.04206L8.40986 4.9247C7.63325 5.06353 6.88195 5.41431 6.25511 5.98902C4.49039 7.60698 4.37153 10.3468 5.98949 12.1115L4.79172 13.2097L7.85297 13.3425L7.98578 10.2812L6.78801 11.3794Z" fill="#526D82"/>
</svg>
