<svg width="13" height="13" viewBox="0 0 13 13" fill="none" xmlns="http://www.w3.org/2000/svg">
<g id="fi-rs-add" clip-path="url(#clip0_747_5216)">
<path id="Vector" d="M6.5 0C5.21442 0 3.95772 0.358794 2.8888 1.03101C1.81988 1.70323 0.986756 2.65867 0.494786 3.77653C0.00281636 4.89438 -0.125905 6.12443 0.124899 7.31114C0.375703 8.49785 0.994768 9.58791 1.90381 10.4435C2.81285 11.299 3.97104 11.8817 5.23192 12.1177C6.49279 12.3538 7.79973 12.2326 8.98745 11.7696C10.1752 11.3066 11.1903 10.5225 11.9046 9.51643C12.6188 8.51039 13 7.3276 13 6.11765C12.9981 4.49569 12.3127 2.94066 11.0941 1.79375C9.87556 0.646854 8.22334 0.00175428 6.5 0V0ZM6.5 11.2157C5.42869 11.2157 4.38143 10.9167 3.49066 10.3565C2.5999 9.79633 1.90563 9.00013 1.49566 8.06858C1.08568 7.13704 0.978413 6.11199 1.18742 5.12307C1.39642 4.13415 1.91231 3.22576 2.66984 2.51279C3.42738 1.79982 4.39253 1.31427 5.44326 1.11757C6.49399 0.920856 7.58311 1.02181 8.57287 1.40767C9.56264 1.79353 10.4086 2.44696 11.0038 3.28533C11.599 4.1237 11.9167 5.10935 11.9167 6.11765C11.9151 7.46928 11.3439 8.76512 10.3284 9.72087C9.31294 10.6766 7.93611 11.2142 6.5 11.2157ZM7.04167 5.60784H9.20834V6.62745H7.04167V8.66667H5.95834V6.62745H3.79167V5.60784H5.95834V3.56863H7.04167V5.60784Z" fill="#656565"/>
</g>
<defs>
<clipPath id="clip0_747_5216">
<rect width="13" height="12.2353" fill="white"/>
</clipPath>
</defs>
</svg>
