<svg width="18" height="19" viewBox="0 0 18 19" fill="none" xmlns="http://www.w3.org/2000/svg">
<path d="M15.6415 2.05168H13.407V0.562012H11.9173V2.05168H5.95866V0.562012H4.46899V2.05168H2.2345C1.64187 2.05168 1.07352 2.2871 0.654469 2.70615C0.23542 3.12519 0 3.69355 0 4.28617L0 18.438H17.876V4.28617C17.876 3.69355 17.6406 3.12519 17.2215 2.70615C16.8025 2.2871 16.2341 2.05168 15.6415 2.05168ZM1.48966 4.28617C1.48966 4.08863 1.56814 3.89918 1.70782 3.7595C1.8475 3.61981 2.03696 3.54134 2.2345 3.54134H15.6415C15.839 3.54134 16.0285 3.61981 16.1682 3.7595C16.3078 3.89918 16.3863 4.08863 16.3863 4.28617V6.52067H1.48966V4.28617ZM1.48966 16.9483V8.01033H16.3863V16.9483H1.48966Z" fill="#27374D"/>
<path d="M12.6615 10.2449H11.1719V11.7345H12.6615V10.2449Z" fill="#27374D"/>
<path d="M9.68108 10.2449H8.19141V11.7345H9.68108V10.2449Z" fill="#27374D"/>
<path d="M6.70255 10.2449H5.21289V11.7345H6.70255V10.2449Z" fill="#27374D"/>
<path d="M12.6615 13.2241H11.1719V14.7138H12.6615V13.2241Z" fill="#27374D"/>
<path d="M9.68108 13.2241H8.19141V14.7138H9.68108V13.2241Z" fill="#27374D"/>
<path d="M6.70255 13.2241H5.21289V14.7138H6.70255V13.2241Z" fill="#27374D"/>
</svg>
