<svg width="31" height="30" viewBox="0 0 31 30" fill="none" xmlns="http://www.w3.org/2000/svg">
<g id="vuesax/bold/book-square">
<g id="book-square">
<path id="Vector" d="M21.0577 2.48682H10.6381C6.1122 2.48682 3.41406 5.18496 3.41406 9.71087V20.118C3.41406 24.6563 6.1122 27.3545 10.6381 27.3545H21.0452C25.5712 27.3545 28.2693 24.6563 28.2693 20.1304V9.71087C28.2817 5.18496 25.5836 2.48682 21.0577 2.48682ZM15.2262 21.4484C15.2262 21.896 14.7786 22.1944 14.3683 22.0204C12.8638 21.3738 10.8992 20.777 9.53151 20.6029L9.29527 20.578C8.5368 20.4786 7.91511 19.7698 7.91511 18.9989V9.4249C7.91511 8.46749 8.68601 7.75876 9.63098 7.83337C11.1852 7.9577 13.4855 8.70373 14.9278 9.52437C15.1267 9.63627 15.2262 9.84765 15.2262 10.059V21.4484ZM23.7807 18.9865C23.7807 19.7574 23.159 20.4661 22.4005 20.5656L22.1394 20.5905C20.7841 20.777 18.832 21.3614 17.3275 21.9955C16.9172 22.1696 16.4696 21.8712 16.4696 21.4235V10.0466C16.4696 9.82278 16.5815 9.6114 16.7804 9.4995C18.2228 8.6913 20.4733 7.97014 22.0026 7.83337H22.0524C23.0098 7.83337 23.7807 8.60426 23.7807 9.56167V18.9865Z" fill="#27374D"/>
</g>
</g>
</svg>
