<svg width="360" height="360" viewBox="0 0 360 360" fill="none" xmlns="http://www.w3.org/2000/svg">
<rect x="182" y="31" width="100" height="81" rx="10" fill="#F98908"/>
<rect x="78" y="147" width="81" height="72" rx="10" fill="#2CA2C7"/>
<rect x="78" y="239" width="81" height="72" rx="10" fill="#055EA1"/>
<rect x="182" y="253" width="95" height="72" rx="10" fill="#5D97D1"/>
<rect x="227" y="233" width="50" height="71" rx="25" fill="#5C98D3"/>
<rect x="261.406" y="127" width="20.5026" height="93.4196" transform="rotate(45 261.406 127)" fill="#052571"/>
<rect x="175" y="172.498" width="20.5026" height="47.4728" rx="8" transform="rotate(-45 175 172.498)" fill="#052571"/>
<path d="M121.5 36C148.286 36 170 56.8188 170 82.5C170 108.181 148.286 129 121.5 129C94.7142 129 73 108.181 73 82.5C73 56.8188 94.7142 36 121.5 36ZM122 52C104.327 52 90 65.6553 90 82.5C90 99.3447 104.327 113 122 113C139.673 113 154 99.3447 154 82.5C154 65.6553 139.673 52 122 52Z" fill="#0A62B3"/>
</svg>
