<svg width="24" height="25" viewBox="0 0 24 25" fill="none" xmlns="http://www.w3.org/2000/svg">
<g clip-path="url(#clip0_1096_3786)">
<path d="M9.53335 12.5003C10.6745 12.5003 11.79 12.1619 12.7388 11.5279C13.6876 10.894 14.4271 9.99285 14.8638 8.93858C15.3005 7.88431 15.4148 6.72422 15.1922 5.60501C14.9695 4.4858 14.42 3.45774 13.6131 2.65084C12.8062 1.84394 11.7782 1.29443 10.659 1.0718C9.53975 0.849178 8.37966 0.963437 7.32539 1.40013C6.27112 1.83682 5.37002 2.57634 4.73604 3.52516C4.10206 4.47398 3.76367 5.58949 3.76367 6.73062C3.7652 8.26037 4.37357 9.72702 5.45526 10.8087C6.53695 11.8904 8.00361 12.4988 9.53335 12.5003ZM9.53335 2.88417C10.2941 2.88417 11.0378 3.10976 11.6703 3.53241C12.3029 3.95506 12.7959 4.5558 13.087 5.25865C13.3781 5.96149 13.4543 6.73489 13.3059 7.48103C13.1575 8.22717 12.7911 8.91254 12.2532 9.45047C11.7153 9.98841 11.0299 10.3547 10.2838 10.5032C9.53762 10.6516 8.76423 10.5754 8.06138 10.2843C7.35853 9.99315 6.7578 9.50014 6.33514 8.8676C5.91249 8.23505 5.6869 7.49138 5.6869 6.73062C5.6869 5.71048 6.09215 4.73212 6.8135 4.01077C7.53485 3.28942 8.51321 2.88417 9.53335 2.88417V2.88417Z" fill="#1A1A1A"/>
<path d="M13.4212 14.4248H5.64562C4.38188 14.4263 3.17033 14.929 2.27673 15.8226C1.38313 16.7162 0.880433 17.9278 0.878906 19.1915L0.878906 24.0409H2.80213V19.1915C2.8029 18.4376 3.10272 17.7148 3.63582 17.1817C4.16891 16.6486 4.89172 16.3488 5.64562 16.348H13.4212C14.1751 16.3488 14.8979 16.6486 15.431 17.1817C15.9641 17.7148 16.264 18.4376 16.2647 19.1915V24.0409H18.1879V19.1915C18.1864 17.9278 17.6837 16.7162 16.7901 15.8226C15.8965 14.929 14.685 14.4263 13.4212 14.4248V14.4248Z" fill="#1A1A1A"/>
</g>
<defs>
<clipPath id="clip0_1096_3786">
<rect width="23.0787" height="23.0787" fill="white" transform="translate(0.878906 0.960938)"/>
</clipPath>
</defs>
</svg>
