<svg width="40" height="40" viewBox="0 0 40 40" fill="none" xmlns="http://www.w3.org/2000/svg">
<path d="M28.2727 0.119141H11.7629C4.59161 0.119141 0.316406 4.39435 0.316406 11.5657V28.0557C0.316406 35.2468 4.59161 39.522 11.7629 39.522H28.253C35.4243 39.522 39.6995 35.2468 39.6995 28.0754V11.5657C39.7192 4.39435 35.444 0.119141 28.2727 0.119141ZM19.0327 30.1638C19.0327 30.873 18.3235 31.3459 17.6734 31.0701C15.2895 30.0456 12.1767 29.0999 10.0095 28.8241L9.63517 28.7847C8.43339 28.6271 7.44832 27.5041 7.44832 26.2826V11.1125C7.44832 9.59552 8.66981 8.47254 10.1671 8.59075C12.6298 8.78776 16.2746 9.96985 18.5599 11.2701C18.8751 11.4475 19.0327 11.7824 19.0327 12.1173V30.1638ZM32.5873 26.2629C32.5873 27.4844 31.6023 28.6074 30.4005 28.765L29.9867 28.8044C27.8393 29.0999 24.7462 30.0259 22.3623 31.0307C21.7121 31.3065 21.0029 30.8336 21.0029 30.1244V12.0976C21.0029 11.743 21.1802 11.4081 21.4954 11.2307C23.7808 9.95015 27.3467 8.80746 29.77 8.59075H29.8488C31.3658 8.59075 32.5873 9.81224 32.5873 11.3292V26.2629Z" fill="#010669"/>
</svg>
